<!--?xml version="1.0" encoding="utf-8"?-->
<!-- Generator: Adobe Illustrator 18.1.1, SVG Export Plug-In . SVG Version: 6.00 Build 0)  -->

<svg version="1.1" id="_x32_" xmlns="http://www.w3.org/2000/svg" xmlns:xlink="http://www.w3.org/1999/xlink" x="0px" y="0px" viewBox="0 0 512 512" style="width: 48px; height: 48px; opacity: 1;" xml:space="preserve">
<style type="text/css">
	.st0{fill:#4B4B4B;}
</style>
<g>
	<path class="st0" d="M378.57,480h-336V32h336v79.602c12.801-11.438,21.277-18.078,31.359-26l0.641-0.477V0h-400v512h400V272.078
		c-11.52,11.445-22.082,20.484-32,27.367V480z" style="fill: rgb(255, 255, 255);"></path>
	<path class="st0" d="M494.347,89.758c-13.195-13.187-35.984-7.289-60.133,12.328c-21.878,17.36-31.598,24.032-76.363,67.11
		c-31.199,27.157-55.484,53.61-60.824,73.203c-0.5,1.875-0.809,3.602-0.938,5.226l-22.648,22.649l-53.551,37.75
		c-1.285,0.898-2.477,1.906-3.578,3.016c-3.601,3.594-6.148,8.156-7.308,13.172l-15.274,66.172l66.176-15.282
		c5.027-1.141,9.586-3.687,13.183-7.305c1.102-1.086,2.106-2.281,3.012-3.57l37.75-53.562l22.645-22.641
		c1.617-0.125,3.363-0.422,5.226-0.938c19.59-5.328,46.047-29.617,73.211-60.812c43.07-44.766,49.742-54.485,67.102-76.375
		C501.652,125.742,507.546,102.961,494.347,89.758z M266.144,357.218c-0.5,0.703-1.055,1.367-1.668,1.977
		c-1.997,2-4.524,3.406-7.309,4.047l-41.156,9.5l27.386-27.39c3.047,1.25,6.668,0.625,9.137-1.844c3.293-3.29,3.293-8.625,0-11.93
		c-3.29-3.29-8.633-3.29-11.926,0c-2.469,2.476-3.082,6.109-1.852,9.148l-27.382,27.375l9.5-41.156
		c0.64-2.782,2.054-5.305,4.046-7.313c0.614-0.602,1.278-1.148,1.989-1.656l51.535-36.328l24.034,24.015L266.144,357.218z
		 M306.695,300.618l-23.191-23.188l16.195-16.203c1.281,1.844,2.73,3.391,4.074,4.734l14.378,14.383
		c1.344,1.351,2.894,2.789,4.73,4.07L306.695,300.618z" style="fill: rgb(255, 255, 255);"></path>
</g>
</svg>
