<!--?xml version="1.0" encoding="utf-8"?-->
<!-- Generator: Adobe Illustrator 18.1.1, SVG Export Plug-In . SVG Version: 6.00 Build 0)  -->

<svg version="1.1" id="_x32_" xmlns="http://www.w3.org/2000/svg" xmlns:xlink="http://www.w3.org/1999/xlink" x="0px" y="0px" viewBox="0 0 512 512" style="width: 32px; height: 32px; opacity: 1;" xml:space="preserve">
<style type="text/css">
	.st0{fill:#4B4B4B;}
</style>
<g>
	<path class="st0" d="M255.996,0C134.42,0,35.845,98.567,35.845,220.151c0,115.21,88.51,209.689,201.238,219.292V512
		l160.482-123.239c48.064-40.382,78.591-100.935,78.591-168.61C476.155,98.567,377.597,0,255.996,0z M140.414,249.512
		c-16.213,0-29.36-13.147-29.36-29.36c0-16.212,13.147-29.36,29.36-29.36c16.212,0,29.351,13.147,29.351,29.36
		C169.765,236.364,156.626,249.512,140.414,249.512z M255.996,249.512c-16.204,0-29.351-13.147-29.351-29.36
		c0-16.212,13.147-29.36,29.351-29.36c16.213,0,29.36,13.147,29.36,29.36C285.356,236.364,272.209,249.512,255.996,249.512z
		 M371.587,249.512c-16.213,0-29.352-13.147-29.352-29.36c0-16.212,13.139-29.36,29.352-29.36c16.213,0,29.36,13.147,29.36,29.36
		C400.947,236.364,387.8,249.512,371.587,249.512z" style="fill: rgb(155, 163, 164);"></path>
</g>
</svg>
